<svg xmlns="http://www.w3.org/2000/svg" width="500" height="500" style="shape-rendering:geometricPrecision;text-rendering:geometricPrecision;image-rendering:optimizeQuality;fill-rule:evenodd;clip-rule:evenodd"><path style="opacity:.999" fill="#5edde3" d="M229.5 12.5c103.057-3.966 180.224 38.368 231.5 127 35.439 73.88 35.439 147.547 0 221-43.744 76.276-109.244 118.943-196.5 128-82.645 2.255-150.145-28.412-202.5-92-46.345-62.785-60.512-131.118-42.5-205C42.803 108.012 95.802 51.845 178.5 23c16.81-5.128 33.81-8.628 51-10.5zm29 5c.709.904 1.709 1.237 3 1-.979 5.495-1.646 10.828-2 16a371.163 371.163 0 0 1-13-14.5c-2.727-.818-5.394-.652-8 .5a28.907 28.907 0 0 0-1.5 4 210.395 210.395 0 0 0 0 29c3.073 1.117 6.24 1.283 9.5.5.791-4.133 1.624-8.3 2.5-12.5L259.5 54c3.459 1.706 6.959 1.872 10.5.5a695.77 695.77 0 0 1 1.5-28c-.967-3.104-.634-5.77 1-8a226.801 226.801 0 0 1 27 4c.79.901 1.79 1.568 3 2a380.664 380.664 0 0 1-12 32.5c.259 1.261.926 2.261 2 3a97.02 97.02 0 0 0 20 5.5c5.45.067 9.617-2.266 12.5-7 6.894-14.881 2.394-24.548-13.5-29-1.021-.502-1.188-1.168-.5-2 .671.752 1.504 1.086 2.5 1l4-1c77.816 25.315 129.649 76.982 155.5 155 20.093 72.15 9.426 139.15-32 201-27.902 38.742-64.068 66.742-108.5 84a33.691 33.691 0 0 1-9 2v-2c.464-3.766-1.036-6.1-4.5-7a57.913 57.913 0 0 1-15.5 4v-3a77.722 77.722 0 0 1 14-3 127.411 127.411 0 0 0-2-11c.926-3.564.593-7.064-1-10.5-2-.667-4-.667-6 0a140.694 140.694 0 0 1-22 7 3.647 3.647 0 0 0-1 1.5 498.594 498.594 0 0 1 9 29.5c-1.323.816-1.989 1.983-2 3.5-8.139 2.371-16.473 3.371-25 3-1.599.268-2.932-.066-4-1 .768-.763 1.268-1.763 1.5-3 .388-9.411.721-18.744 1-28-3.183-2.023-6.683-2.523-10.5-1.5a87.051 87.051 0 0 1-2.5 12.5 294.96 294.96 0 0 0-10.5-12.5c-3.293-1.608-6.627-1.775-10-.5-1.309 11.061-1.309 22.061 0 33-.709.904-1.709 1.237-3 1-12.449-.404-25.116-2.404-38-6v-2a215.813 215.813 0 0 0 9-22l1.5-1c8.094 4.046 11.594 1.713 10.5-7l-29-10c-2.739 2.391-3.572 5.391-2.5 9a71.306 71.306 0 0 1 8.5 4.5c-3.516 7.175-5.683 14.675-6.5 22.5a32.6 32.6 0 0 1 4.5 4 128.748 128.748 0 0 0-11-2C92.037 439.859 40.203 379.859 21 291.5 8.013 202.11 35.513 127.944 103.5 69c20.258-16.13 42.591-28.63 67-37.5h4c.418.722 1.084 1.222 2 1.5-1.304.804-1.971 1.97-2 3.5a122.356 122.356 0 0 0 7.5 22c6.251 6.35 13.418 7.516 21.5 3.5 5.999-2.327 9.332-6.66 10-13a351.087 351.087 0 0 0-6.5-21.5c-.816-1.323-1.983-1.99-3.5-2 .647-1.64 1.647-2.974 3-4a124.861 124.861 0 0 1 25-3 585.321 585.321 0 0 1 27-1zm-65 9c.617.11 1.117.444 1.5 1a153.04 153.04 0 0 0 6.5 21c-.333 3.667-2.333 5.667-6 6a7.292 7.292 0 0 1-3-2 129.338 129.338 0 0 1-7-21c-.047-1.538.62-2.538 2-3 1.642-1.58 3.642-2.247 6-2zm116 14c3.951-.215 6.284 1.618 7 5.5.028 6.98-3.305 9.98-10 9a4.932 4.932 0 0 1-1-2.5 126.657 126.657 0 0 1 4-12zm52 28c8.659 1.594 10.159 5.927 4.5 13-5.656 4.63-9.489 3.463-11.5-3.5 1.016-4.177 3.35-7.344 7-9.5zm26 321c.789.283 1.456.783 2 1.5-4.183 4.634-4.85 4.134-2-1.5zm11 9c1.725.343 2.225 1.343 1.5 3-1.605 2.774-3.772 3.44-6.5 2a29.937 29.937 0 0 1 5-5zm-50 27c3.499-.241 3.832.592 1 2.5-1 .667-2 .667-3 0 .881-.708 1.547-1.542 2-2.5zm7 12a12.93 12.93 0 0 1 5 .5c-2.601 4.201-5.601 4.867-9 2 1.82-.2 3.153-1.034 4-2.5zm-46 10c2.235.748 1.902 1.581-1 2.5a87.287 87.287 0 0 0-7 2.5l-1-1a33.119 33.119 0 0 1 9-4zm-56 34-2 2h-3a23.26 23.26 0 0 1-7-3 134.59 134.59 0 0 0 1.5-13 77.742 77.742 0 0 0 10 11c.483.948.649 1.948.5 3zm64-10c-.709.904-1.709 1.237-3 1 .304-2.296 1.304-2.629 3-1z"/><path style="opacity:.543" fill="#4ba2a7" d="M266.5 17.5h-8c-9.009.126-18.009.459-27 1 .763-.768 1.763-1.268 3-1.5 10.841-.826 21.508-.659 32 .5z"/><path style="opacity:.877" fill="#010203" d="M258.5 17.5h8l6 1c-1.634 2.23-1.967 4.896-1 8a695.77 695.77 0 0 0-1.5 28c-3.541 1.372-7.041 1.206-10.5-.5L249 41.5c-.876 4.2-1.709 8.367-2.5 12.5-3.26.783-6.427.617-9.5-.5a210.395 210.395 0 0 1 0-29 28.907 28.907 0 0 1 1.5-4c2.606-1.152 5.273-1.318 8-.5a371.163 371.163 0 0 0 13 14.5c.354-5.172 1.021-10.505 2-16-1.291.237-2.291-.096-3-1z"/><path style="opacity:.294" fill="#225559" d="M299.5 22.5c6.521.187 12.521 1.854 18 5l-4 1c-3.069-2.69-6.736-4.023-11-4-1.21-.432-2.21-1.099-3-2z"/><path style="opacity:.396" fill="#1d4349" d="M206.5 21.5c-1.353 1.026-2.353 2.36-3 4-3.542-.313-6.875.02-10 1-2.358-.247-4.358.42-6 2-.235-.597-.735-.93-1.5-1-4.296.337-8.13 1.67-11.5 4h-4c.111-.617.444-1.117 1-1.5a136.321 136.321 0 0 1 35-8.5z"/><path style="opacity:.867" fill="#000102" d="M193.5 26.5c3.125-.98 6.458-1.313 10-1 1.517.01 2.684.677 3.5 2a351.087 351.087 0 0 1 6.5 21.5c-.668 6.34-4.001 10.673-10 13-8.082 4.016-15.249 2.85-21.5-3.5a122.356 122.356 0 0 1-7.5-22c.029-1.53.696-2.696 2-3.5-.916-.278-1.582-.778-2-1.5 3.37-2.33 7.204-3.663 11.5-4 .765.07 1.265.403 1.5 1-1.38.462-2.047 1.462-2 3a129.338 129.338 0 0 0 7 21 7.292 7.292 0 0 0 3 2c3.667-.333 5.667-2.333 6-6a153.04 153.04 0 0 1-6.5-21c-.383-.556-.883-.89-1.5-1z"/><path style="opacity:.885" fill="#000101" d="M302.5 24.5c4.264-.023 7.931 1.31 11 4-.996.086-1.829-.248-2.5-1-.688.832-.521 1.498.5 2 15.894 4.452 20.394 14.119 13.5 29-2.883 4.734-7.05 7.067-12.5 7a97.02 97.02 0 0 1-20-5.5c-1.074-.739-1.741-1.739-2-3a380.664 380.664 0 0 0 12-32.5zm7 16a126.657 126.657 0 0 0-4 12 4.932 4.932 0 0 0 1 2.5c6.695.98 10.028-2.02 10-9-.716-3.882-3.049-5.715-7-5.5z"/><path style="opacity:.997" fill="#f90000" d="M134.5 82.5c2.642 3.648 5.309 7.315 8 11a35.079 35.079 0 0 1-8 6 241.152 241.152 0 0 1-20-26.5c3.837-3.332 7.837-6.5 12-9.5a179.09 179.09 0 0 1 12.5 10c-1.206-5.107-3.039-10.107-5.5-15a123.884 123.884 0 0 1 10-8.5c1-.667 2-.667 3 0A988.165 988.165 0 0 0 165 73.5c.667 1 .667 2 0 3a50.89 50.89 0 0 1-10 7c-1.401-4.76-3.735-9.094-7-13 1.309 4.74 3.142 9.407 5.5 14-1.84 2.835-4.34 4.835-7.5 6a235.259 235.259 0 0 0-11.5-8z"/><path style="opacity:.969" d="M354.5 93.5c5.143 3.326 8.643 7.992 10.5 14a478.092 478.092 0 0 1 24 34c8.641 14.586 13.641 30.253 15 47-12.112 14.779-25.612 28.279-40.5 40.5a40.875 40.875 0 0 1-13 7 630.16 630.16 0 0 1-28 7c-4.833 2.167-8.333 5.667-10.5 10.5a412 412 0 0 0-5 26 3659.068 3659.068 0 0 1-23 64 69.597 69.597 0 0 0 1 21 169.296 169.296 0 0 1 6 32 810.28 810.28 0 0 1 6.5 22c-41.335.167-82.668 0-124-.5l-1-1a776.557 776.557 0 0 0 9.5-24.5l5.5-34a50.851 50.851 0 0 0-3.5-17 133.722 133.722 0 0 0-17-26c-9.3 12.969-20.8 23.469-34.5 31.5a167.857 167.857 0 0 0-27 13c-7.215 1.113-14.215.446-21-2-12.613-16.426-18.28-35.093-17-56a635.642 635.642 0 0 0 3.5-38.5 83.8 83.8 0 0 1 4-14 804.792 804.792 0 0 1 19-33 11.296 11.296 0 0 1 4-2 8866.744 8866.744 0 0 0 15.5 6.5c3.673 3.499 5.507 7.666 5.5 12.5-4.531 2.898-8.031 6.732-10.5 11.5a100.412 100.412 0 0 0-13.5 9.5c-3.043 8.594-3.043 17.26 0 26a107.464 107.464 0 0 0 13.5 20 63.137 63.137 0 0 1 7.5-13l11-9c6.339-27.345 23.506-40.845 51.5-40.5a119.16 119.16 0 0 0 13.5-12.5c1.504-3.539 1.837-7.205 1-11a59.043 59.043 0 0 0-5-9 152.715 152.715 0 0 0-24.5-16.5c-8.959-7.084-12.459-16.25-10.5-27.5.692-7.762 3.859-14.262 9.5-19.5a136.509 136.509 0 0 1 17-10c8.113-2.213 16.113-1.879 24 1 9.506 7.211 17.006 16.045 22.5 26.5a29.964 29.964 0 0 1 6 7 140.55 140.55 0 0 0 7 22c2.605 6.1 1.772 11.6-2.5 16.5.405.945 1.072 1.612 2 2 7.507 2.419 15.174 3.419 23 3l12-12c5.997-3.573 12.497-5.406 19.5-5.5a96.67 96.67 0 0 0 22.5.5c7.139-7.821 15.972-12.655 26.5-14.5a64.765 64.765 0 0 1 9.5 2c3.31-.14 5.643-1.64 7-4.5a409.268 409.268 0 0 1-4.5-42.5c-2.287-9.534-6.12-18.367-11.5-26.5-6.609 1.103-12.943.103-19-3-3.923-.793-7.756-.626-11.5.5-3.1-1.094-4.6-3.261-4.5-6.5a118.586 118.586 0 0 1 8.5-21.5c5.18-2.562 10.347-2.396 15.5.5l10 8c1.902 1.301 3.902 1.968 6 2-4.268-4.9-5.435-10.4-3.5-16.5 9.26-15.656 20.26-16.99 33-4 5.561 9.654 4.061 18.154-4.5 25.5-5.782 3.853-11.782 4.353-18 1.5zm7-25c-3.65 2.156-5.984 5.323-7 9.5 2.011 6.963 5.844 8.13 11.5 3.5 5.659-7.073 4.159-11.406-4.5-13z"/><path style="opacity:1" fill="#f8f8f8" d="M198.5 227.5c5.919.355 11.586 1.189 17 2.5a267.404 267.404 0 0 0 6 10.5 182.468 182.468 0 0 0 19 1.5 307.941 307.941 0 0 0 28.5 9.5 28.043 28.043 0 0 0 1.5 5l-4 1a163.64 163.64 0 0 0-27-8.5c-5.435-.382-10.768.285-16 2 .996 2.316 1.996 4.65 3 7-.488 1.584-1.488 2.751-3 3.5 1.316 9.982 6.149 17.649 14.5 23l1 3a203.586 203.586 0 0 0 3 33c9.361 5.357 17.528 12.191 24.5 20.5 3.925.063 7.425 1.229 10.5 3.5.463 4.338.963 8.671 1.5 13 .521 5.733-1.812 7.733-7 6a67.254 67.254 0 0 0-4.5-10 15.265 15.265 0 0 0-5.5-3 6.802 6.802 0 0 1 3-1.5c-8.537-8.099-18.203-14.432-29-19-6.384-6.979-10.384-15.145-12-24.5h-3v-5a81.883 81.883 0 0 0-18 1 19.887 19.887 0 0 0 3.5 4c3.202 10.702 9.035 19.702 17.5 27-5.946 6.638-13.28 10.638-22 12a458.942 458.942 0 0 1 5-10 3.647 3.647 0 0 0-1-1.5l2-6a159.041 159.041 0 0 0-13.5-16.5c-2.516-3.728-4.35-7.728-5.5-12-.094-2.412.906-4.245 3-5.5 5.623-4.609 11.957-7.943 19-10a3.943 3.943 0 0 0 1-2c-2.115-4.761-5.615-7.928-10.5-9.5-3.001 4.5-6.834 8.167-11.5 11a130.097 130.097 0 0 1-16-26c1.049-3.523 3.383-5.023 7-4.5.062 8.024 3.229 14.524 9.5 19.5a64.902 64.902 0 0 0 6-14c3.09-1.951 5.59-4.451 7.5-7.5-1.316-3.494-3.65-4.494-7-3a78.453 78.453 0 0 0-4-5.5c1.664-3.397 2.497-7.064 2.5-11a30.233 30.233 0 0 1 3.5-3z"/><path style="opacity:.831" d="M387.5 378.5c3.692-.529 6.858.471 9.5 3 .684 1.284.517 2.451-.5 3.5 14.16 2.15 17.66 9.317 10.5 21.5-2.921 3.592-6.421 6.425-10.5 8.5-3.984 1.115-7.318.115-10-3 1.76-2.029 2.927-4.196 3.5-6.5-8.33 3.551-13.83.884-16.5-8 1.636-8.627 6.303-14.96 14-19zm0 11c-2.85 5.634-2.183 6.134 2 1.5-.544-.717-1.211-1.217-2-1.5zm11 9a29.937 29.937 0 0 0-5 5c2.728 1.44 4.895.774 6.5-2 .725-1.657.225-2.657-1.5-3z"/><path style="opacity:.999" fill="#f90000" d="M120.5 384.5c6.586 5.755 12.753 12.088 18.5 19 .667 1 .667 2 0 3a32.364 32.364 0 0 0-5.5 4 85.693 85.693 0 0 0-11-11 10.756 10.756 0 0 0-3 2.5 100.657 100.657 0 0 1 9 10 34.534 34.534 0 0 1-6 5.5 57.508 57.508 0 0 1-9-9 44.86 44.86 0 0 0-8.5 7 47.268 47.268 0 0 1-7-7c-.667-1-.667-2 0-3a679.471 679.471 0 0 0 22.5-21z"/><path style="opacity:.829" d="M350.5 414.5c4.303-.704 7.803.63 10.5 4 .72 1.612.554 3.112-.5 4.5 11.92 4.977 13.92 12.477 6 22.5-5.731 5.638-12.398 7.471-20 5.5-1.624-1.117-2.624-2.617-3-4.5 1.498-2.329 3.498-4.163 6-5.5-12.523.78-16.69-4.72-12.5-16.5 3.767-4.452 8.267-7.786 13.5-10zm-2 11c-.453.958-1.119 1.792-2 2.5 1 .667 2 .667 3 0 2.832-1.908 2.499-2.741-1-2.5zm7 12c-.847 1.466-2.18 2.3-4 2.5 3.399 2.867 6.399 2.201 9-2a12.93 12.93 0 0 0-5-.5z"/><path style="opacity:.846" d="M155.5 417.5c3.214.94 6.214 2.44 9 4.5 1.017 1.049 1.184 2.216.5 3.5a593.348 593.348 0 0 1-16.5 24c-3.643.949-6.81-.051-9.5-3-.667-1.333-.667-2.667 0-4a598.242 598.242 0 0 0 16.5-25z"/><path style="opacity:.854" fill="#000102" d="M191.5 473.5h-4a32.6 32.6 0 0 0-4.5-4c.817-7.825 2.984-15.325 6.5-22.5a71.306 71.306 0 0 0-8.5-4.5c-1.072-3.609-.239-6.609 2.5-9l29 10c1.094 8.713-2.406 11.046-10.5 7l-1.5 1a215.813 215.813 0 0 1-9 22z"/><path style="opacity:.811" fill="#010202" d="M323.5 467.5a318.77 318.77 0 0 1-19 4.5c-2.247 1.277-4.247 2.777-6 4.5v2h-6c.011-1.517.677-2.684 2-3.5a498.594 498.594 0 0 0-9-29.5 3.647 3.647 0 0 1 1-1.5 140.694 140.694 0 0 0 22-7c2-.667 4-.667 6 0 1.593 3.436 1.926 6.936 1 10.5.83 3.649 1.496 7.315 2 11a77.722 77.722 0 0 0-14 3v3a57.913 57.913 0 0 0 15.5-4c3.464.9 4.964 3.234 4.5 7zm-14-20a33.119 33.119 0 0 0-9 4l1 1a87.287 87.287 0 0 1 7-2.5c2.902-.919 3.235-1.752 1-2.5z"/><path style="opacity:.869" fill="#000001" d="M263.5 480.5c-3.228.914-6.561 1.247-10 1a4.934 4.934 0 0 0-.5-3 77.742 77.742 0 0 1-10-11 134.59 134.59 0 0 1-1.5 13c-3.035 1.234-6.035 1.234-9 0-1.309-10.939-1.309-21.939 0-33 3.373-1.275 6.707-1.108 10 .5a294.96 294.96 0 0 1 10.5 12.5 87.051 87.051 0 0 0 2.5-12.5c3.817-1.023 7.317-.523 10.5 1.5a2530.64 2530.64 0 0 1-1 28c-.232 1.237-.732 2.237-1.5 3z"/><path style="opacity:.114" fill="#4e9197" d="M332.5 467.5c-10.536 5.481-21.87 9.148-34 11v-2h2c1.291.237 2.291-.096 3-1 .667 0 1-.333 1-1a28.789 28.789 0 0 1 10-2c1.291.237 2.291-.096 3-1 2.398.241 4.398-.426 6-2a33.691 33.691 0 0 0 9-2z"/><path style="opacity:.078" fill="#26393e" d="M323.5 467.5v2c-1.602 1.574-3.602 2.241-6 2-1.696-1.629-2.696-1.296-3 1a28.789 28.789 0 0 0-10 2c-.667 0-1 .333-1 1-1.291-.237-2.291.096-3 1h-2c1.753-1.723 3.753-3.223 6-4.5a318.77 318.77 0 0 0 19-4.5z"/><path style="opacity:.088" fill="#469097" d="M176.5 471.5c3.697.508 7.364 1.174 11 2h4v2c-5.411-.142-10.411-1.476-15-4z"/><path style="opacity:.545" fill="#377a83" d="M232.5 480.5c2.965 1.234 5.965 1.234 9 0a23.26 23.26 0 0 0 7 3 145.053 145.053 0 0 1-17-.5c-.916-.278-1.582-.778-2-1.5 1.291.237 2.291-.096 3-1z"/><path style="opacity:.471" fill="#397e86" d="M263.5 480.5c1.068.934 2.401 1.268 4 1-.111.617-.444 1.117-1 1.5a112.97 112.97 0 0 1-15 .5l2-2c3.439.247 6.772-.086 10-1z"/></svg>